<svg xmlns="http://www.w3.org/2000/svg" xml:space="preserve" viewBox="0 0 512.003 512.003"><path d="m105.189 262.371-15.184-15.184a7.498 7.498 0 0 0-10.605 0 7.498 7.498 0 0 0 0 10.605l15.184 15.184a7.478 7.478 0 0 0 5.303 2.197 7.499 7.499 0 0 0 5.302-12.802zM272.977 94.583l-15.184-15.184a7.498 7.498 0 0 0-10.605 0 7.498 7.498 0 0 0 0 10.605l15.184 15.184a7.478 7.478 0 0 0 5.303 2.197 7.499 7.499 0 0 0 5.302-12.802zM210.913 161.513a7.498 7.498 0 1 0-14.965 1.006c.588 8.752-2.826 17.522-9.365 24.061-6.54 6.54-15.309 9.955-24.062 9.365a7.5 7.5 0 0 0-1.005 14.964c.984.066 1.966.099 2.949.099 12.059-.001 23.847-4.947 32.724-13.824 9.6-9.599 14.602-22.601 13.724-35.671z"/><path d="M511.988 105.93c-.983-36.194-53.471-90.21-124.365-92.147a80.843 80.843 0 0 0-7.252-4.584c-15.388-8.562-46.163-18.516-82.912 7.77-8.287-4.833-17.332-7.9-27.102-9.144-41.852-5.326-83.812 24.466-96.489 34.417-7.043-2.823-14.317-4.337-22.02-4.337-22.157 0-45.42 12.943-73.209 40.733-28.808 28.808-41.732 52.894-40.673 75.801.312 6.753 1.802 13.174 4.298 19.414-9.92 12.674-39.785 54.812-34.427 96.578 1.25 9.744 4.316 18.767 9.138 27.036-21.312 29.803-18.777 55.647-12.617 72.376 2.292 6.224 5.482 12.176 9.426 17.753 1.925 70.908 55.948 123.41 92.146 124.39.365.01.725.015 1.085.015 18.073-.001 29.63-12.453 30.991-33.518 2.331-36.039 11.088-47.295 19.556-58.181 5.895-7.576 11.974-15.422 15.068-29.795 5.596-8.314 10.153-17.82 13.637-28.453 6.113-2.42 11.735-5.623 16.82-9.629 12.467-9.824 21.41-24.195 26.654-42.741 30.446-3.001 47.987-23.257 51.801-28.146 4.789-3.743 24.391-20.708 27.972-50.154.066-.545.116-1.093.171-1.639 22.677-6.401 38.99-18.258 48.511-35.317 1.459-2.614 2.728-5.341 3.846-8.156 10.643-3.486 20.157-8.044 28.477-13.643 14.367-3.095 22.21-9.172 29.786-15.066 10.886-8.469 22.142-17.227 58.181-19.556 21.484-1.39 34.009-13.381 33.502-32.077zM143.012 400.388c-8.505 6.409-18.578 10.75-29.055 12.823-1.776.351-3.474.669-5.282.738-4.087.157-7.25 3.755-7.212 7.789.04 4.306 4.099 7.818 8.384 7.301 9.995-1.176 19.873-3.989 28.904-8.447-7.152 10.871-13.727 26.195-15.714 56.919-.318 4.921-1.268 19.903-16.704 19.477C92 496.6 72.935 484.249 57.761 465.522c-14.063-17.358-23.401-38.126-27.166-59.959 9.099 7.455 19.746 13.46 31.286 17.63a111.116 111.116 0 0 0 15.606 4.393 7.5 7.5 0 0 0 8.844-5.855c.816-4.006-1.843-8.032-5.854-8.848-20.512-4.167-40.579-15.363-53.254-32.262-.008-.011-.018-.019-.026-.03-16.107-21.528-14.959-48.105-.797-70.314 8.898 9.812 20.097 17.101 31.319 23.957l.28.172c29.049 17.876 62.654 33.132 97.405 33.132 4.54 0 8.909-.301 13.113-.886-6.132 14.28-14.769 25.646-25.505 33.736zm35.226-51.333c-.129.036-.26.058-.389.101-28.832 9.622-72.075-1.862-117.146-30.766-8.937-5.732-18.248-12.112-25.17-20.523l-.062-.077c-21.761-26.32-12.861-61.804 1.938-89.164 4.425-8.181 9.057-15.147 12.673-20.175 13.044 19.511 35.621 38.276 63.122 61.114 29.736 24.693 60.311 56.058 100.885 60.093-6.701 20.378-18.706 33.553-35.851 39.397zm93.613-78.992a7.677 7.677 0 0 0-1.77 1.764c-10.736 14.914-29.853 23.233-47.972 23.233-40.109 0-70.713-33.273-99.307-57.02-30.757-25.545-55.052-45.721-65.043-66.337-.042-.085-.095-.163-.139-.247-16.17-30.385 11.535-62.125 31.623-82.213 21.883-21.884 52.189-47.738 84.701-30.336 23.819 12.75 40.255 35.289 57.197 55.599 14.796 17.738 31.103 34.854 44.244 53.873l.221.321c13.331 19.372 19.857 37.802 19.434 54.971l.002.054c-.453 17.184-8.927 36.063-23.191 46.338zM414.708 97.965c-.001 31.799-19.269 58.192-48.052 70.551 1.52-10.855 1.089-22.799-1.342-35.767a7.501 7.501 0 0 0-8.752-5.99c-4.022.751-6.757 4.731-6.003 8.755 3.029 16.176 2.563 30.395-1.381 42.265-6.157 18.45-21.472 30.348-39.504 36.297-1.687-17.139-8.803-34.943-21.279-53.24l-.196-.289c-4.371-6.401-9.167-12.512-14.235-18.375-8.671-10.034-35.511-42.306-36.817-43.854-17.423-20.68-32.815-37.622-48.687-48.244 15.27-10.976 48.52-31.379 80.003-27.373 10.837 1.379 20.631 5.647 29.287 12.733l.113.091c9.954 8.143 17.047 19.39 23.712 30.23 8.169 13.286 14.846 26.444 19.939 39.3.915 2.31 1.669 4.994 3.878 6.555 2.008 1.42 4.687 1.765 6.985.895a7.503 7.503 0 0 0 4.845-6.728c.07-1.817-.664-3.419-1.309-5.073-7.368-18.907-17.919-38.364-31.401-57.87-3.174-4.592-6.711-8.947-10.62-12.934-.255-.26-3.44-3.599-3.607-3.494 21.22-13.47 43.235-14.986 62.791-4.105 24.575 13.675 41.409 44.967 41.633 75.557l-.001.107zm62.806 25.072c-30.792 1.991-46.116 8.59-56.992 15.761 4.05-8.155 6.801-17.007 8.175-26.379 4.203-28.657-4.745-59.356-23.145-81.825 21.837 3.764 42.611 13.102 59.972 27.168 18.727 15.174 31.079 34.239 31.466 48.572.42 15.416-14.555 16.385-19.476 16.703z"/></svg>