<svg xmlns="http://www.w3.org/2000/svg" xml:space="preserve" viewBox="0 0 511.995 511.995">
  <path d="M464.529 47.467c-63.287-63.279-166.271-63.279-229.558 0-29.489 29.48-45.808 73.589-44.758 121.582.051.623 4.839 63.313-45.867 114.028-13.323 13.315-13.323 34.994 0 48.317 6.965 6.956 16.558 10.472 26.322 9.943-.589 9.448 2.723 19.101 9.926 26.305 6.657 6.657 15.406 9.986 24.154 9.986s17.505-3.329 24.171-9.977c50.715-50.715 113.414-45.936 114.609-45.833 47.506.819 91.53-15.312 121.001-44.792 63.288-63.298 63.288-166.264 0-229.559zm-12.077 217.48c-26.203 26.203-65.873 40.78-107.977 39.825-2.885-.247-71.088-5.753-127.633 50.801-6.666 6.649-17.514 6.649-24.18 0-6.666-6.666-6.666-17.514 0-24.18 1.664-1.664 2.501-3.841 2.501-6.026s-.836-4.37-2.501-6.034c-3.329-3.337-8.731-3.337-12.069 0-6.461 6.461-17.719 6.452-24.18 0-6.666-6.666-6.666-17.514 0-24.18 56.545-56.553 51.057-124.757 50.826-127.044-.922-42.795 13.579-82.372 39.79-108.574 56.639-56.63 148.791-56.63 205.421 0 56.63 56.63 56.632 148.782.002 205.412z"/>
  <path d="M277.236 77.647c-3.337-3.329-8.74-3.303-12.069.026-26.237 26.348-30.53 61.922-32.681 96.113-.299 4.703 3.277 8.757 7.98 9.056.188.009.367.017.546.017 4.464 0 8.219-3.474 8.509-8.006 1.955-30.94 5.693-62.997 27.739-85.129a8.54 8.54 0 0 0-.024-12.077zM231.702 226.66c-4.447-1.519-9.312.845-10.848 5.292-1.562 4.541-2.765 9.107-3.943 13.648-1.98 7.605-3.849 14.8-7.485 21.15-2.339 4.088-.913 9.312 3.175 11.642a8.434 8.434 0 0 0 4.225 1.127 8.573 8.573 0 0 0 7.434-4.302c4.754-8.33 6.999-16.959 9.175-25.315 1.067-4.122 2.142-8.279 3.559-12.393a8.533 8.533 0 0 0-5.292-10.849zM455.858 196.692c-4.327-1.869-9.354.111-11.232 4.43-16.251 37.418-52.627 61.341-93.015 61.341-.572 0-1.144-.009-1.716-.017-5.027.213-8.603 3.67-8.68 8.39-.077 4.711 3.679 8.595 8.39 8.68.666.009 1.34.017 2.006.017 47.199 0 89.695-27.927 108.677-71.618 1.877-4.317-.103-9.344-4.43-11.223zM434.307 77.671a8.526 8.526 0 0 0-12.069 0c-3.329 3.329-3.329 8.731 0 12.069 17.096 17.104 27.713 40.251 27.713 60.42 0 4.72 3.824 8.535 8.535 8.535s8.535-3.815 8.526-8.535c.001-24.529-12.529-52.302-32.705-72.489zM93.861 443.739l-34.089-.051h-.009a8.53 8.53 0 0 0-8.535 8.518c0 4.72 3.815 8.544 8.526 8.552l34.089.051h.009a8.535 8.535 0 0 0 8.535-8.518c0-4.719-3.815-8.542-8.526-8.552z"/>
  <path d="M202.205 365.09a8.57 8.57 0 0 0-4.745-6.256c-1.963-.939-3.534-2.006-4.788-3.252-6.666-6.666-6.666-17.514 0-24.18 1.664-1.664 2.501-3.849 2.501-6.034s-.836-4.37-2.501-6.034c-3.329-3.337-8.731-3.337-12.069 0-6.461 6.444-17.727 6.435-24.171.009-1.272-1.28-2.339-2.842-3.269-4.797a8.527 8.527 0 0 0-6.256-4.745 8.463 8.463 0 0 0-7.485 2.373L95.586 356.01c-23.403-17.522-56.835-15.645-78.104 5.599-23.309 23.309-23.309 61.256 0 84.565 9.465 9.465 22.985 12.726 34.354 13.98 1.246 11.369 4.506 24.888 13.972 34.354 11.659 11.65 26.971 17.48 42.283 17.48 15.312 0 30.632-5.821 42.291-17.471 21.269-21.261 23.13-54.701 5.607-78.096l43.836-43.844a8.551 8.551 0 0 0 2.38-7.487zm-63.894 44.85a8.526 8.526 0 0 0 0 12.069c16.66 16.66 16.66 43.768 0 60.428-16.66 16.652-43.768 16.652-60.428 0-7.511-7.519-9.073-21.116-9.593-30.683-.239-4.336-3.713-7.818-8.057-8.049-9.576-.529-23.173-2.091-30.683-9.602-16.66-16.66-16.66-43.768 0-60.428 8.33-8.33 19.272-12.487 30.214-12.487 10.933 0 21.884 4.165 30.214 12.487a8.526 8.526 0 0 0 12.069 0l42.3-42.291c.009 0 .009.009.009.009 6.965 6.965 16.609 10.541 26.322 9.943-.589 9.448 2.723 19.101 9.926 26.314l-42.293 42.29z"/>
  <path d="M68.247 418.117a8.53 8.53 0 0 0-8.535-8.518h-.009a8.533 8.533 0 0 0-8.526 8.552l.051 34.089a8.53 8.53 0 0 0 8.535 8.518h.009a8.534 8.534 0 0 0 8.526-8.552l-.051-34.089z"/>
</svg>