<svg xmlns="http://www.w3.org/2000/svg" xml:space="preserve" viewBox="0 0 512 512">
  <path d="M437.02 74.98C388.667 26.629 324.38 0 256 0S123.333 26.629 74.98 74.98C26.629 123.333 0 187.62 0 256s26.629 132.667 74.98 181.02C123.333 485.371 187.62 512 256 512s132.667-26.629 181.02-74.98C485.371 388.667 512 324.38 512 256s-26.629-132.667-74.98-181.02zm-10.607 351.433C380.894 471.932 320.374 497 256 497s-124.894-25.068-170.413-70.587C40.068 380.894 15 320.374 15 256S40.068 131.106 85.587 85.587C131.106 40.068 191.626 15 256 15s124.894 25.068 170.413 70.587C471.932 131.106 497 191.626 497 256s-25.068 124.894-70.587 170.413z"/>
  <path d="M418.727 167.493c-16.096-.552-31.852-2.29-45.753-3.824-36.434-4.019-61.843-4.003-75.917 8.474a46.75 46.75 0 0 0-4.024 4.051l-.436-.759a7.5 7.5 0 0 0-13.004 7.477l4.363 7.588c-4.07 8.839-6.984 19.479-9.724 32.105-7.752 35.724-19.468 89.71-89.191 95.391a7.501 7.501 0 0 0 1.218 14.951c35.052-2.856 61.578-17.209 78.839-42.66 14.405-21.239 19.831-46.244 23.793-64.5 1.521-7.007 3.068-13.269 4.821-18.821a7.51 7.51 0 0 0 5.346 2.241 7.456 7.456 0 0 0 3.731-1 7.5 7.5 0 0 0 2.764-10.24l-4.419-7.685c1.734-2.647 3.668-4.958 5.875-6.916 10.476-9.286 37.105-7.788 64.32-4.786 14.165 1.562 30.22 3.334 46.883 3.905 4.122.133 7.611-3.098 7.753-7.238a7.501 7.501 0 0 0-7.238-7.754zM159.185 326.206a7.5 7.5 0 0 0-8.916-5.746c-5.311 1.148-10.249 2.807-14.676 4.93a7.5 7.5 0 0 0 6.484 13.527c3.373-1.617 7.196-2.894 11.363-3.795a7.5 7.5 0 0 0 5.745-8.916zM325.354 95.753c-.294-4.132-3.886-7.248-8.014-6.948-28.104 2.001-50.745 10.937-69.215 27.316-18.09 16.044-28.15 35.136-34.642 53.993-4.462-3.824-10.252-6.14-16.576-6.14a25.64 25.64 0 0 0-3.56.255c7.392-21.585 19.28-44.762 40.811-63.857a130.218 130.218 0 0 1 11.541-9.13 7.5 7.5 0 0 0-8.614-12.28 145.18 145.18 0 0 0-12.879 10.187c-39.226 34.787-49.116 80.343-55.669 110.524a580.96 580.96 0 0 1-2.389 10.664c-45.164.437-72.608 10.423-85.181 16.509a7.502 7.502 0 0 0 3.273 14.252 7.465 7.465 0 0 0 3.262-.751c27.779-13.445 64.775-15.178 84.308-15.014a7.5 7.5 0 0 0 7.465-5.598c.82-3.13 1.648-6.65 2.363-9.809a25.364 25.364 0 0 0 15.27 5.097c1.812 0 3.579-.197 5.284-.558-2.983 13.228-5.656 22.872-9.328 27.22-3.095 3.664-8.246 4.807-21.228 4.698-31.624-.267-67.471 9.78-89.262 24.99a7.5 7.5 0 0 0 8.586 12.3c19.14-13.36 52.248-22.532 80.551-22.291 13.228.114 24.831-.565 32.813-10.017 6.572-7.783 9.713-20.632 14.106-40.871 5.744-26.474 12.892-59.42 39.648-83.15 16.128-14.303 35.298-21.794 60.328-23.577a7.499 7.499 0 0 0 6.948-8.014zM196.907 200.025c-5.803 0-10.525-4.721-10.525-10.525s4.722-10.525 10.525-10.525 10.525 4.722 10.525 10.525-4.722 10.525-10.525 10.525z"/>
  <path d="M157.626 135.214a7.5 7.5 0 0 0-9.678 4.341c-5.204 13.671-8.665 26.517-11.149 36.933-5.467.789-10.824 1.788-15.922 2.765-2.5.479-5.052 1.033-7.584 1.648a7.5 7.5 0 0 0 3.54 14.576c2.296-.557 4.607-1.06 6.868-1.493 6.714-1.287 13.301-2.505 20.074-3.278a7.497 7.497 0 0 0 6.462-5.785c2.436-10.689 5.971-24.9 11.73-40.029a7.5 7.5 0 0 0-4.341-9.678zM183.749 90.337a7.498 7.498 0 0 0-10.472 1.683 191.95 191.95 0 0 0-10.042 15.408 7.5 7.5 0 1 0 12.942 7.582 177.07 177.07 0 0 1 9.254-14.2 7.502 7.502 0 0 0-1.682-10.473zM411.812 239.382c-17.453-.792-32.845-2.502-44.083-3.751l-1.24-.138a25.433 25.433 0 0 0 1.025-7.145 25.382 25.382 0 0 0-4.472-14.412c1.484.162 2.942.322 4.334.476 12.109 1.336 25.834 2.85 40.445 3.673a7.5 7.5 0 0 0 .844-14.976c-14.209-.801-27.722-2.292-39.643-3.607-8.62-.952-20.426-2.256-30.188-2.793-12.636-.694-23.792 7.853-26.501 20.324l-2.872 13.217c-4.11 18.944-10.99 50.651-30.804 77.096-23.464 31.315-59.468 47.188-107.036 47.188-.301 0-.609 0-.911-.002-15.312-.062-36.878 2.346-52.455 14.202a7.5 7.5 0 0 0 4.548 13.468c1.583 0 3.18-.499 4.537-1.532 12.87-9.796 32.646-11.186 43.307-11.138 34.269.147 63.241-7.288 86.639-22.146 1.801 7.449 6.875 13.633 13.611 16.936-25.962 17.661-57.684 26.525-94.75 26.364-5.662-.022-11.125.417-16.176 1.302a7.499 7.499 0 0 0-6.092 8.682 7.501 7.501 0 0 0 8.682 6.093c4.081-.715 8.517-1.078 13.191-1.078l1.257.002c56.099 0 101.076-19.193 133.69-57.052 21.022-24.404 36.322-55.879 45.473-93.552.761-3.132 3.785-5.225 7.033-4.864l2.868.318c11.444 1.271 27.118 3.013 45.061 3.827 4.114.194 7.644-3.014 7.832-7.152s-3.015-7.642-7.154-7.83zm-129.72 112.533c-5.804 0-10.525-4.722-10.525-10.525s4.722-10.525 10.525-10.525 10.525 4.722 10.525 10.525-4.721 10.525-10.525 10.525zm23.402-20.706a25.648 25.648 0 0 0-15.452-14.071c.204-.268.417-.527.619-.797 18.337-24.473 26.418-52.239 31.122-72.422 4.484 5.806 11.408 9.632 19.223 9.93-7.676 30.488-19.598 56.454-35.512 77.36zm36.495-92.336c-5.803 0-10.525-4.722-10.525-10.525s4.722-10.525 10.525-10.525c5.804 0 10.525 4.722 10.525 10.525s-4.722 10.525-10.525 10.525z"/>
  <path d="M409.869 275.35a540.266 540.266 0 0 1-21.111-1.373c-8.86-.739-17.113 4.732-20.061 13.314a210.894 210.894 0 0 1-6.493 16.53l-.957-.957a7.5 7.5 0 0 0-10.606 0 7.5 7.5 0 0 0 0 10.606l4.654 4.654c-23.042 43.836-64.483 89.322-123.134 103.39a7.5 7.5 0 0 0 3.498 14.586c33.997-8.154 66.181-27.264 93.073-55.265 14.529-15.127 27.346-32.774 37.671-51.603l.01.01c1.464 1.464 3.384 2.197 5.303 2.197s3.839-.732 5.303-2.197a7.5 7.5 0 0 0 0-10.606l-3.472-3.472c3.537-7.562 6.674-15.251 9.335-22.999.725-2.109 2.575-3.415 4.623-3.241a554.01 554.01 0 0 0 21.691 1.409c4.127.18 7.643-3.018 7.829-7.156a7.499 7.499 0 0 0-7.156-7.827zM408.245 311.366c-1.555-.07-3.089-.147-4.605-.23a7.494 7.494 0 0 0-7.297 4.527c-10.391 24.173-24.932 47.661-42.052 67.926a7.5 7.5 0 0 0 11.458 9.68c16.935-20.046 31.48-43.085 42.269-66.912a7.501 7.501 0 0 0 7.386-7.165 7.501 7.501 0 0 0-7.159-7.826zM390.297 129.275c-4.504-.462-8.966-.954-13.375-1.44-40.102-4.421-77.979-8.597-104.876 15.257-21.605 19.161-27.682 47.163-33.044 71.867-7.31 33.68-13.254 61.072-51.511 66.498a7.48 7.48 0 0 0-4.227-4.98 7.498 7.498 0 0 0-9.889 3.835l-.938 2.126c-.363 0-.734-.002-1.1-.005-41.86-.346-65.113 17.093-75.254 27.52a7.5 7.5 0 0 0 10.753 10.458c17.029-17.508 40.546-22.299 58.957-22.912l-.868 1.966a7.501 7.501 0 0 0 6.857 10.53 7.501 7.501 0 0 0 6.866-4.475l3.729-8.452c23.229-1.753 40.13-9.916 51.429-24.804 11.354-14.961 15.675-34.87 19.854-54.123 5.113-23.557 10.399-47.917 28.338-63.826 21.916-19.437 54.988-15.791 93.279-11.57 4.447.49 8.946.986 13.488 1.452a7.501 7.501 0 0 0 1.532-14.922zM291.616 67.833a7.501 7.501 0 0 0-9.272-5.151l-3.943 1.127a7.5 7.5 0 0 0-5.151 9.272 7.505 7.505 0 0 0 7.208 5.442c.682 0 1.376-.094 2.064-.291l3.943-1.127a7.5 7.5 0 0 0 5.151-9.272zM330.714 408.078a7.499 7.499 0 0 0-9.487 4.743l-3.38 10.139a7.5 7.5 0 0 0 7.117 9.874 7.503 7.503 0 0 0 7.114-5.13l3.38-10.14a7.5 7.5 0 0 0-4.744-9.486zM105.841 148.015h-2.816a7.5 7.5 0 0 0 0 15h2.816a7.5 7.5 0 0 0 0-15z"/>
</svg>